<svg id="Calque_1" data-name="Calque 1" xmlns="http://www.w3.org/2000/svg" viewBox="0 0 454.75 119.4"><defs><style>.cls-1{stroke:#1d1d1b;stroke-miterlimit:10;}.cls-2{fill:#808181;}.cls-3{fill:#f4c500;}.cls-4{fill:#1d1d1b;}</style></defs><path class="cls-1" d="M106.2,255.19a39.12,39.12,0,1,1-34.4,20.53l-1.94-3.36a42.55,42.55,0,1,0,31.28-20.22l1.84,3.19C104,255.24,105.12,255.19,106.2,255.19Z" transform="translate(-63.24 -234.59)"/><path class="cls-2" d="M73.86,294.29a32.34,32.34,0,1,1,62.6,11.4l1.75,3a35.11,35.11,0,1,0-32,20.7l1,0-1.6-2.76A32.38,32.38,0,0,1,73.86,294.29Z" transform="translate(-63.24 -234.59)"/><rect x="95.69" width="3.09" height="119.4"/><path class="cls-1" d="M107,283.81c-.87,1.43-.69,2.82.18,3.34.61.36,1.5.64,1.37,1.54-.11.72-.93.86-1.53,1.12a19.06,19.06,0,0,0-4.65,2.53c-1.87,1.54-1.71,2.81.54,3.77,3,1.26,6.12,1.45,9.25,1.8a46.23,46.23,0,0,1,18.88,6.17.37.37,0,0,1-.34.66h0c-15.11-6.2-30.41-5.32-45.8-1.29-1.7.44-3.42.83-5.15,1.12a2.25,2.25,0,0,1-2.51-1c-.54-1,.16-1.75.75-2.37a52.64,52.64,0,0,1,13.06-10,93.38,93.38,0,0,1,12.65-5.73,4.79,4.79,0,0,1,2.14-.58.36.36,0,0,0,.31-.11Z" transform="translate(-63.24 -234.59)"/><path class="cls-1" d="M107.68,284.53a9.57,9.57,0,0,0,1,.68,118.24,118.24,0,0,0,11.92,7.3l.13.06s.83.48,2.45,1.36c0,0,2.74,1.45,3.27,1.68a48.08,48.08,0,0,1,8.43,4.63,51.37,51.37,0,0,0-6.91-3.93,15.3,15.3,0,0,0-3.66-2.09s1.17.15,6.5,3.33c0,0-.95-.59-5.26-2.88a12.38,12.38,0,0,1,2,.94S125,294.4,120.63,292c3.53,1.94-6.88-3.82-8.42-5.07a42.47,42.47,0,0,0-4.54-2.41" transform="translate(-63.24 -234.59)"/><path class="cls-1" d="M124.89,294.69A47.39,47.39,0,0,1,135,300.22" transform="translate(-63.24 -234.59)"/><path class="cls-1" d="M122.31,293a80.1,80.1,0,0,1,9.92,5.29" transform="translate(-63.24 -234.59)"/><path d="M359,264.16c-7.52-.12-15,0-22.54-.09-1.48,0-3.62,0-4.28-.9-1.35-1.8-2.75-4.28-2.58-6.34.27-3.09,3-4.43,6.14-4.43h42.36V239.87c-14.51,0-28.7-.06-42.88,0-11.43.06-19.43,7.72-19.41,18.4s8,18.3,19.44,18.35c7.66,0,15.31-.06,23,0,4.68.06,7.65,2.66,7.72,6.47.06,4.07-3,6.83-7.73,6.88s-9.45,0-14.18,0H316v12.52c14.51,0,28.68.07,42.85,0,11.58-.07,20.39-8.22,20.44-18.69C379.33,272.47,371,264.34,359,264.16Z" transform="translate(-63.24 -234.59)"/><path d="M436.1,245.42c0,8.63.19,17.27-.14,25.89-.43,10.93-9,19.2-19.29,19s-18.55-8.51-18.93-19.46c-.17-4.72-.07-9.46-.08-14.19,0-5.52,0-11,0-16.66H385.22c0,11.31-.4,22.18.1,33,.71,15.55,13.67,28.46,28.84,29.48,15.93,1.07,31.2-9.15,33.29-24.15,1.75-12.54,1.14-25.42,1.58-38.21H436.1C436.1,242.11,436.11,243.76,436.1,245.42Z" transform="translate(-63.24 -234.59)"/><path d="M214.61,251.8h25.72V240.14H177.26v11.91h25v28.84h12.34Z" transform="translate(-63.24 -234.59)"/><path class="cls-3" d="M202.27,302.46h12.34v-16.8H202.27Z" transform="translate(-63.24 -234.59)"/><path d="M246.6,251.9h25v29h12.49V251.82h25.6V240.13H246.6Z" transform="translate(-63.24 -234.59)"/><path class="cls-3" d="M271.6,302.36h12.49v-16.7H271.6Z" transform="translate(-63.24 -234.59)"/><path d="M491.43,240.65c-11.9-1.36-24.07-.27-36.23-.27V252h5.29c8.76.07,17.54-.15,26.29.28,10.94.55,18.66,8.71,18.66,19.07s-8,18.44-19,18.78c-2.83.09-5.67.13-8.51.15v12.25h4.75c2.08,0,4.18,0,6.25-.17,15.88-1.48,28.34-13.92,29-28.88C518.69,256.54,508.22,242.56,491.43,240.65Z" transform="translate(-63.24 -234.59)"/><path class="cls-3" d="M455.23,290.23v12.33h18V290.32C467.28,290.3,461.32,290.23,455.23,290.23Z" transform="translate(-63.24 -234.59)"/><path class="cls-4" d="M206.66,340.74a5.76,5.76,0,0,1-.74,2.64,9.2,9.2,0,0,1-2.26,2.68,11.64,11.64,0,0,1-3.82,2.05,16.08,16.08,0,0,1-5.19.78q-6.14,0-9.58-3.58t-3.45-9.59a15.84,15.84,0,0,1,1.58-7.21,11.29,11.29,0,0,1,4.56-4.84,15.52,15.52,0,0,1,11.85-1,12.31,12.31,0,0,1,3.64,1.94,9.54,9.54,0,0,1,2.28,2.54,5,5,0,0,1,.79,2.51,2.65,2.65,0,0,1-.89,2,3,3,0,0,1-2.14.83,2.12,2.12,0,0,1-1.37-.43,6.41,6.41,0,0,1-1.23-1.37,10,10,0,0,0-2.53-2.76,6.2,6.2,0,0,0-8.09,1.37,9.91,9.91,0,0,0-1.8,6.27,12,12,0,0,0,.46,3.43,7.79,7.79,0,0,0,1.34,2.67,5.6,5.6,0,0,0,2.11,1.67,6.39,6.39,0,0,0,2.71.57,6.06,6.06,0,0,0,3.41-.92,8,8,0,0,0,2.51-2.81,6.49,6.49,0,0,1,1.31-1.75,2.48,2.48,0,0,1,1.72-.63,2.59,2.59,0,0,1,2,.92A3,3,0,0,1,206.66,340.74Z" transform="translate(-63.24 -234.59)"/><path class="cls-4" d="M229.17,345.2a20.31,20.31,0,0,1-4.64,2.8,12.9,12.9,0,0,1-5,.94,9.51,9.51,0,0,1-4.47-1,7.37,7.37,0,0,1-3-2.73,7.13,7.13,0,0,1-1-3.74,6.72,6.72,0,0,1,1.72-4.63,8.64,8.64,0,0,1,4.73-2.57c.42-.1,1.47-.32,3.13-.66s3.1-.65,4.29-.93,2.47-.63,3.86-1a6.94,6.94,0,0,0-1-3.85c-.62-.81-1.91-1.22-3.87-1.22a8.08,8.08,0,0,0-3.8.7,6.25,6.25,0,0,0-2.18,2.11q-.92,1.41-1.29,1.86a2.09,2.09,0,0,1-1.61.45A2.82,2.82,0,0,1,213,331a2.31,2.31,0,0,1-.81-1.83,5.59,5.59,0,0,1,1.24-3.4,8.89,8.89,0,0,1,3.85-2.71,17.46,17.46,0,0,1,6.53-1.07,18.37,18.37,0,0,1,6.86,1,6.38,6.38,0,0,1,3.53,3.26,14.25,14.25,0,0,1,1,5.92c0,1.56,0,2.87,0,4s0,2.29,0,3.61a13.09,13.09,0,0,0,.62,3.9,12.29,12.29,0,0,1,.61,2.6,2.47,2.47,0,0,1-.95,1.86,3.23,3.23,0,0,1-2.18.84,2.93,2.93,0,0,1-2-1A14.34,14.34,0,0,1,229.17,345.2Zm-.44-9.58a35,35,0,0,1-4.23,1.13q-2.77.58-3.84.87a5.21,5.21,0,0,0-2,1.09,2.79,2.79,0,0,0-1,2.27,3.36,3.36,0,0,0,1.14,2.56,4.22,4.22,0,0,0,3,1,7.71,7.71,0,0,0,3.63-.86,5.7,5.7,0,0,0,2.44-2.22,10.24,10.24,0,0,0,.89-4.95Z" transform="translate(-63.24 -234.59)"/><path class="cls-4" d="M248.53,339.38v5.53a4.27,4.27,0,0,1-.95,3,3.16,3.16,0,0,1-2.4,1,3,3,0,0,1-2.35-1,4.32,4.32,0,0,1-.92-3V326.47q0-4.46,3.22-4.46a2.7,2.7,0,0,1,2.38,1,5.73,5.73,0,0,1,.8,3.08,11.65,11.65,0,0,1,2.44-3.08,5,5,0,0,1,3.33-1,8.6,8.6,0,0,1,4.06,1,3.12,3.12,0,0,1,2,2.77,2.79,2.79,0,0,1-2.64,2.79,8.2,8.2,0,0,1-1.76-.45,8.15,8.15,0,0,0-2.46-.45,3.6,3.6,0,0,0-2.38.76,4.88,4.88,0,0,0-1.43,2.27,16,16,0,0,0-.71,3.58C248.59,335.7,248.53,337.39,248.53,339.38Z" transform="translate(-63.24 -234.59)"/><path class="cls-4" d="M269.64,339.38v5.53a4.27,4.27,0,0,1-.95,3,3.16,3.16,0,0,1-2.4,1,3,3,0,0,1-2.36-1,4.37,4.37,0,0,1-.92-3V326.47q0-4.46,3.23-4.46a2.71,2.71,0,0,1,2.38,1,5.82,5.82,0,0,1,.8,3.08,11.45,11.45,0,0,1,2.44-3.08,5,5,0,0,1,3.33-1,8.6,8.6,0,0,1,4.05,1,3.13,3.13,0,0,1,2,2.77,2.79,2.79,0,0,1-2.65,2.79,8.35,8.35,0,0,1-1.76-.45,8.15,8.15,0,0,0-2.46-.45,3.61,3.61,0,0,0-2.38.76,5,5,0,0,0-1.43,2.27,16,16,0,0,0-.7,3.58C269.7,335.7,269.64,337.39,269.64,339.38Z" transform="translate(-63.24 -234.59)"/><path class="cls-4" d="M288.17,318.93a3.5,3.5,0,0,1-2.37-.85,3.3,3.3,0,0,1,0-4.72,3.36,3.36,0,0,1,2.34-.91,3.46,3.46,0,0,1,2.28.83,3,3,0,0,1,1,2.4,3,3,0,0,1-1,2.39A3.35,3.35,0,0,1,288.17,318.93Zm3.27,6.84v19.14a4.28,4.28,0,0,1-.94,3,3.13,3.13,0,0,1-2.4,1,3,3,0,0,1-2.37-1.05,4.37,4.37,0,0,1-.91-3V326a4.25,4.25,0,0,1,.91-3,3.08,3.08,0,0,1,2.37-1,3.17,3.17,0,0,1,2.4,1A3.88,3.88,0,0,1,291.44,325.77Z" transform="translate(-63.24 -234.59)"/><path class="cls-4" d="M316.77,337.1H303.82a8.62,8.62,0,0,0,.91,4,6.19,6.19,0,0,0,2.35,2.59,6.25,6.25,0,0,0,3.24.88,8.2,8.2,0,0,0,2.17-.28,7.08,7.08,0,0,0,1.9-.88,13.93,13.93,0,0,0,1.7-1.27c.52-.45,1.19-1.07,2-1.84a2.14,2.14,0,0,1,1.46-.44,2.41,2.41,0,0,1,1.65.56,2,2,0,0,1,.63,1.57,4.29,4.29,0,0,1-.7,2.1,8.4,8.4,0,0,1-2.13,2.31,12.25,12.25,0,0,1-3.56,1.83,15.52,15.52,0,0,1-4.94.73q-6.37,0-9.92-3.64t-3.54-9.88a16.5,16.5,0,0,1,.87-5.44,11.92,11.92,0,0,1,2.55-4.31,11.1,11.1,0,0,1,4.12-2.75,14.83,14.83,0,0,1,5.44-1,13,13,0,0,1,6.66,1.64,10.82,10.82,0,0,1,4.16,4.23,11.14,11.14,0,0,1,1.38,5.29c0,1.67-.48,2.75-1.43,3.24A9,9,0,0,1,316.77,337.1Zm-6.11-21.86,1.09,2a3.47,3.47,0,0,1,.65,1.43c0,.4-.34.61-1,.61a6.45,6.45,0,0,1-3-.71,22.82,22.82,0,0,1-3.35-2.88c-1.78-1.7-2.67-2.66-2.67-2.87s.41-.36,1.24-.36h3.27A3.74,3.74,0,0,1,309,313,6.36,6.36,0,0,1,310.66,315.24Zm-6.84,18.1h12a8,8,0,0,0-1.83-5.08,5.46,5.46,0,0,0-4.18-1.69,5.32,5.32,0,0,0-4.07,1.71A8.47,8.47,0,0,0,303.82,333.34Z" transform="translate(-63.24 -234.59)"/><path class="cls-4" d="M334.38,339.38v5.53a4.27,4.27,0,0,1-.94,3,3.18,3.18,0,0,1-2.41,1,3,3,0,0,1-2.35-1,4.37,4.37,0,0,1-.92-3V326.47c0-3,1.07-4.46,3.23-4.46a2.68,2.68,0,0,1,2.37,1,5.64,5.64,0,0,1,.8,3.08,11.85,11.85,0,0,1,2.44-3.08,5.07,5.07,0,0,1,3.34-1,8.6,8.6,0,0,1,4.05,1,3.12,3.12,0,0,1,2,2.77,2.65,2.65,0,0,1-.83,2,2.63,2.63,0,0,1-1.81.79,8.35,8.35,0,0,1-1.76-.45,8.15,8.15,0,0,0-2.46-.45,3.61,3.61,0,0,0-2.38.76,5,5,0,0,0-1.43,2.27,16,16,0,0,0-.7,3.58C334.45,335.7,334.38,337.39,334.38,339.38Z" transform="translate(-63.24 -234.59)"/><path class="cls-4" d="M366.82,337.1h-13a8.87,8.87,0,0,0,.91,4,6.14,6.14,0,0,0,5.59,3.47,8.09,8.09,0,0,0,2.17-.28,7,7,0,0,0,1.91-.88,14.74,14.74,0,0,0,1.7-1.27c.52-.45,1.19-1.07,2-1.84a2.14,2.14,0,0,1,1.46-.44,2.41,2.41,0,0,1,1.65.56,2,2,0,0,1,.63,1.57,4.31,4.31,0,0,1-.71,2.1,8.35,8.35,0,0,1-2.12,2.31,12.18,12.18,0,0,1-3.57,1.83,15.45,15.45,0,0,1-4.93.73q-6.39,0-9.92-3.64t-3.55-9.88A16.5,16.5,0,0,1,348,330a12,12,0,0,1,2.54-4.31,11.14,11.14,0,0,1,4.13-2.75,14.74,14.74,0,0,1,5.43-1,12.9,12.9,0,0,1,6.66,1.64,10.75,10.75,0,0,1,4.16,4.23,11.15,11.15,0,0,1,1.39,5.29q0,2.5-1.44,3.24A8.92,8.92,0,0,1,366.82,337.1Zm-13-3.76h12a8,8,0,0,0-1.83-5.08,5.48,5.48,0,0,0-4.19-1.69,5.29,5.29,0,0,0-4.06,1.71A8.54,8.54,0,0,0,353.86,333.34Z" transform="translate(-63.24 -234.59)"/><path class="cls-4" d="M399.18,340.28a7.7,7.7,0,0,1-5.28,7.65,17.67,17.67,0,0,1-6.34,1,15.37,15.37,0,0,1-6.11-1.1,8.78,8.78,0,0,1-3.76-2.72,5.53,5.53,0,0,1-1.22-3.29,2.55,2.55,0,0,1,.78-1.87,2.65,2.65,0,0,1,2-.78,2.28,2.28,0,0,1,1.6.51,5.39,5.39,0,0,1,1.07,1.44,7.21,7.21,0,0,0,2.44,2.64,7.4,7.4,0,0,0,3.87.87,5.58,5.58,0,0,0,3.26-.88,2.5,2.5,0,0,0,1.28-2,2.78,2.78,0,0,0-1.33-2.55,16.31,16.31,0,0,0-4.35-1.52,35.66,35.66,0,0,1-5.57-1.79,9.14,9.14,0,0,1-3.43-2.46,5.63,5.63,0,0,1-1.29-3.76,6.64,6.64,0,0,1,1.19-3.76,8.18,8.18,0,0,1,3.51-2.83,13.47,13.47,0,0,1,5.59-1.05,18.68,18.68,0,0,1,4.62.53,11.77,11.77,0,0,1,3.42,1.43,7.29,7.29,0,0,1,2.09,2,4,4,0,0,1,.71,2.14,2.47,2.47,0,0,1-.76,1.87,3,3,0,0,1-2.17.72,2.67,2.67,0,0,1-1.74-.58,11.53,11.53,0,0,1-1.63-1.75,6.24,6.24,0,0,0-1.78-1.55,5.53,5.53,0,0,0-2.76-.58,5.38,5.38,0,0,0-3,.76,2.22,2.22,0,0,0-1.19,1.91,2.08,2.08,0,0,0,.87,1.71,7.35,7.35,0,0,0,2.35,1.1c1,.29,2.35.65,4.08,1.07a21.48,21.48,0,0,1,5,1.8,8.28,8.28,0,0,1,3,2.46A5.44,5.44,0,0,1,399.18,340.28Z" transform="translate(-63.24 -234.59)"/></svg>